<svg xmlns="http://www.w3.org/2000/svg" width="173" height="45" viewBox="0 0 173 45" fill="none"><path d="M112.873 28.8599C112.842 28.9511 112.336 30.7044 111.098 32.5147C110.03 34.0804 108.92 35.6422 107.174 35.6741C105.457 35.7055 104.905 34.6525 102.945 34.6525C100.98 34.6525 100.367 35.6422 98.7442 35.7055C97.057 35.769 95.7726 34.0126 94.6959 32.4536C92.494 29.2612 90.8134 23.4344 93.0726 19.5032C94.1927 17.5487 96.1992 16.3122 98.3756 16.2805C100.033 16.2489 101.594 17.3964 102.607 17.3964C103.619 17.3964 105.517 16.0162 107.513 16.2179C108.348 16.2533 110.694 16.5559 112.202 18.7675C112.082 18.8441 109.402 20.4076 109.432 23.6596C109.466 27.5504 112.834 28.8428 112.873 28.8599ZM106.205 14.1088C107.103 13.0211 107.705 11.5101 107.539 10.0054C106.25 10.0525 104.688 10.8665 103.763 11.9526C102.934 12.9144 102.207 14.4536 102.404 15.9264C103.84 16.0382 105.31 15.1935 106.205 14.1088Z" fill="#EBEBEB"></path><path d="M120.629 23.3066L123.356 15.6934H124.169L126.897 23.3066H126.006L125.199 20.9352H122.287L121.481 23.3066H120.629ZM123.735 16.7206L122.527 20.2482H124.965L123.757 16.7206H123.735Z" fill="#EBEBEB"></path><path d="M132.524 23.3066H131.707V22.5083H131.673C131.462 22.9834 130.911 23.4015 129.965 23.4015C128.762 23.4015 127.894 22.7145 127.894 21.3807V17.4629H128.717V21.1459C128.717 22.2514 129.357 22.6475 130.175 22.6475C131.094 22.6475 131.701 22.0452 131.701 21.0847V17.4629H132.524V23.3066Z" fill="#EBEBEB"></path><path d="M134.54 15.9956H135.358V17.4633H136.566V18.1608H135.358V21.7547C135.358 22.4749 135.598 22.6537 136.338 22.6537C136.439 22.6537 136.533 22.6537 136.616 22.642V23.3172C136.533 23.3348 136.332 23.3571 136.143 23.3571C134.801 23.3571 134.54 22.8379 134.54 21.7045V18.1608H133.723V17.4633H134.54V15.9956Z" fill="#EBEBEB"></path><path d="M137.892 15.2866H138.71V18.2552H138.737C138.916 17.8598 139.428 17.3686 140.39 17.3686C141.699 17.3686 142.562 18.3112 142.562 19.6455V23.3072H141.737V19.8077C141.737 18.8304 141.247 18.1219 140.268 18.1219C139.278 18.1219 138.71 18.7744 138.71 19.8297V23.3072H137.892V15.2866Z" fill="#EBEBEB"></path><path d="M148.936 20.12V20.6443C148.936 22.2797 148.14 23.4015 146.475 23.4015C144.811 23.4015 144.01 22.2901 144.01 20.6443V20.12C144.01 18.5403 144.806 17.3687 146.475 17.3687C148.14 17.3687 148.936 18.4894 148.936 20.12ZM144.822 20.2142V20.5552C144.822 21.7379 145.262 22.6702 146.475 22.6702C147.684 22.6702 148.112 21.7437 148.112 20.5552V20.2142C148.112 19.0536 147.684 18.0882 146.475 18.0882C145.267 18.0882 144.822 19.0484 144.822 20.2142Z" fill="#EBEBEB"></path><path d="M150.505 17.4633H151.317V18.188H151.34C151.513 17.8198 151.803 17.3735 152.821 17.3735C152.943 17.3735 153.065 17.3853 153.177 17.3956V18.1608C153.088 18.1437 152.905 18.1385 152.726 18.1385C151.696 18.1385 151.317 18.7683 151.317 19.6233V23.307H150.505V17.4633Z" fill="#EBEBEB"></path><path d="M154.776 15.4702C155.099 15.4702 155.344 15.7104 155.344 16.0285C155.344 16.3526 155.099 16.5926 154.776 16.5926C154.475 16.5926 154.225 16.3526 154.225 16.0285C154.225 15.7104 154.475 15.4702 154.776 15.4702ZM154.374 17.4631H155.193V23.3068H154.374V17.4631Z" fill="#EBEBEB"></path><path d="M156.779 22.7209L159.991 18.189V18.1388H156.757V17.4634H161.015V18.0488L157.797 22.5758V22.6201H161.037V23.307H156.779V22.7209Z" fill="#EBEBEB"></path><path d="M162.146 20.6944V20.1371C162.146 18.5403 162.919 17.3687 164.505 17.3687C166.092 17.3687 166.866 18.5014 166.866 20.1251V20.5883H162.969V20.7504C162.969 21.7608 163.448 22.6702 164.572 22.6702C165.452 22.6702 165.813 22.1909 165.919 21.755H166.782C166.654 22.4804 166.059 23.4015 164.578 23.4015C162.936 23.4015 162.146 22.2683 162.146 20.6944ZM166.042 19.88V19.8638C166.042 18.8246 165.469 18.0882 164.505 18.0882C163.548 18.0882 162.969 18.8304 162.969 19.8638V19.88H166.042Z" fill="#EBEBEB"></path><path d="M172.037 18.3009H172.06V15.2866H172.878V23.3072H172.104V22.3969H172.081C171.954 22.8602 171.33 23.3962 170.317 23.3962C168.826 23.3962 168.024 22.3188 168.024 20.7841V19.9807C168.024 18.457 168.831 17.3627 170.317 17.3627C171.285 17.3627 171.854 17.82 172.037 18.3009ZM168.843 20.1368V20.6222C168.843 21.8395 169.372 22.676 170.45 22.676C171.475 22.676 172.06 21.8946 172.06 20.639V20.0969C172.06 18.8922 171.459 18.094 170.423 18.094C169.365 18.094 168.843 18.9312 168.843 20.1368Z" fill="#EBEBEB"></path><path d="M126.479 29.3577C126.479 30.5963 125.75 31.2275 125.037 31.4675L126.613 34.738H125.661L124.207 31.6398H122.249V34.738H121.42V27.1255H124.091C125.734 27.1255 126.479 28.1741 126.479 29.3577ZM123.947 30.8872C125.054 30.8872 125.628 30.3458 125.628 29.4135C125.628 28.4089 124.987 27.8729 123.986 27.8729H122.249V30.8872H123.947Z" fill="#EBEBEB"></path><path d="M127.742 32.126V31.5678C127.742 29.9719 128.516 28.7993 130.102 28.7993C131.689 28.7993 132.463 29.9328 132.463 31.5565V32.0199H128.566V32.1818C128.566 33.1922 129.045 34.1018 130.17 34.1018C131.049 34.1018 131.41 33.6216 131.517 33.1863H132.38C132.251 33.9117 131.655 34.8324 130.175 34.8324C128.533 34.8324 127.742 33.6996 127.742 32.126ZM131.639 31.3113V31.2945C131.639 30.2562 131.066 29.5188 130.102 29.5188C129.145 29.5188 128.566 30.262 128.566 31.2945V31.3113H131.639Z" fill="#EBEBEB"></path><path d="M135.731 28.7993C137.106 28.7993 137.763 29.6095 137.763 30.5241H136.989C136.961 30.0668 136.666 29.4746 135.692 29.4746C134.968 29.4746 134.429 29.8214 134.429 30.446C134.429 31.1663 135.168 31.2835 135.876 31.4231C136.967 31.6235 137.908 31.9027 137.908 33.0471C137.908 34.2019 136.967 34.8324 135.648 34.8324C134.368 34.8324 133.511 34.1909 133.511 33.1863H134.311C134.39 33.7224 134.818 34.1466 135.681 34.1466C136.649 34.1466 137.094 33.7165 137.094 33.1413C137.094 32.4438 136.432 32.3049 135.597 32.1368C134.501 31.9027 133.622 31.6627 133.622 30.5299C133.622 29.3356 134.623 28.7993 135.731 28.7993Z" fill="#EBEBEB"></path><path d="M139.037 32.126V31.5678C139.037 29.9719 139.812 28.7993 141.398 28.7993C142.984 28.7993 143.758 29.9328 143.758 31.5565V32.0199H139.861V32.1818C139.861 33.1922 140.341 34.1018 141.465 34.1018C142.344 34.1018 142.706 33.6216 142.812 33.1863H143.675C143.547 33.9117 142.95 34.8324 141.47 34.8324C139.828 34.8324 139.037 33.6996 139.037 32.126ZM142.934 31.3113V31.2945C142.934 30.2562 142.361 29.5188 141.398 29.5188C140.44 29.5188 139.861 30.262 139.861 31.2945V31.3113H142.934Z" fill="#EBEBEB"></path><path d="M146.062 26.718H145.244V34.7386H146.062V26.718Z" fill="#EBEBEB"></path><path d="M148.725 26.718H147.906V34.7386H148.725V26.718Z" fill="#EBEBEB"></path><path d="M150.238 32.126V31.5678C150.238 29.9719 151.012 28.7993 152.598 28.7993C154.185 28.7993 154.959 29.9328 154.959 31.5565V32.0199H151.062V32.1818C151.062 33.1922 151.541 34.1018 152.665 34.1018C153.544 34.1018 153.906 33.6216 154.012 33.1863H154.875C154.747 33.9117 154.151 34.8324 152.671 34.8324C151.029 34.8324 150.238 33.6996 150.238 32.126ZM154.135 31.3113V31.2945C154.135 30.2562 153.562 29.5188 152.598 29.5188C151.641 29.5188 151.062 30.262 151.062 31.2945V31.3113H154.135Z" fill="#EBEBEB"></path><path d="M156.496 28.8942H157.308V29.6196H157.33C157.503 29.2514 157.793 28.8052 158.811 28.8052C158.933 28.8052 159.056 28.8169 159.168 28.8272V29.5917C159.079 29.5753 158.895 29.5695 158.716 29.5695C157.687 29.5695 157.308 30.1999 157.308 31.0549V34.7386H156.496V28.8942Z" fill="#EBEBEB"></path><line opacity="0.5" x1="83.5" y1="2.18556e-08" x2="83.5" y2="45" stroke="white"></line><path d="M0.506836 44.427V0.568848H74.95V44.427H0.506836Z" stroke="white"></path><path fill-rule="evenodd" clip-rule="evenodd" d="M64.6487 32.9391L63.605 33.6917V35.7943H62.3659V29.6907H63.605V32.2946L66.9696 29.6907H68.6119L65.5545 32.1608L68.6119 35.7943H67.0923L64.6487 32.9391ZM55.1784 31.6149V35.7943H54.0503V29.6907H55.1698L59.3548 33.7808V29.6907H60.4829V35.7943H59.4752L55.1784 31.6149ZM52.2979 33.5841C52.2979 34.2286 52.1797 34.711 51.9431 35.0335C51.509 35.6124 50.6021 35.9033 49.2213 35.9033C48.2209 35.9033 47.4598 35.7472 46.9386 35.4371C46.6396 35.2522 46.4339 35.0047 46.3231 34.6948C46.2055 34.384 46.1459 34.0135 46.1459 33.5841V29.6907H47.385V33.2079C47.385 33.56 47.407 33.8192 47.4505 33.987C47.4937 34.1541 47.5746 34.294 47.6926 34.4068C48.0108 34.711 48.539 34.864 49.2786 34.864C50.0165 34.864 50.5448 34.711 50.8627 34.4068C50.981 34.294 51.0619 34.1541 51.1051 33.987C51.1477 33.8192 51.1696 33.56 51.1696 33.2079V29.6907H52.2979V33.5841ZM39.5086 34.7921H41.3272C41.8978 34.7921 42.3311 34.7176 42.6229 34.568C43.2442 34.2572 43.5539 33.6497 43.5539 32.7432C43.5539 32.0855 43.3879 31.5811 43.0523 31.2305C42.8643 31.0397 42.6381 30.9019 42.3709 30.8173C42.1042 30.7341 41.7554 30.6922 41.3272 30.6922H39.5086V34.7921ZM38.2695 29.6907H41.4483C42.2115 29.6907 42.7989 29.7746 43.2096 29.941C43.7883 30.1922 44.2166 30.6008 44.4971 31.1679C44.7137 31.6149 44.8224 32.1392 44.8224 32.7432C44.8224 33.792 44.4971 34.5952 43.8442 35.1497C43.5644 35.3818 43.2404 35.5482 42.8695 35.6461C42.5001 35.7455 42.0256 35.7943 41.4483 35.7943H38.2695V29.6907Z" fill="white"></path><path fill-rule="evenodd" clip-rule="evenodd" d="M31.6679 32.3128H33.8677C34.3025 32.3128 34.611 32.2685 34.7903 32.1787C34.9142 32.1248 35.0126 32.0351 35.0846 31.9099C35.1545 31.7847 35.1912 31.6469 35.1912 31.4988C35.1912 31.3554 35.1545 31.2206 35.0846 31.0954C35.0126 30.9708 34.9142 30.8803 34.7903 30.8266C34.611 30.7366 34.3025 30.6926 33.8677 30.6926H31.6679V32.3128ZM31.6679 33.315V35.794H30.4281V29.6904H34.0271C34.4869 29.6904 34.8476 29.7211 35.1119 29.7801C35.3763 29.8397 35.6084 29.9407 35.8066 30.0841C36.0123 30.2388 36.1732 30.4392 36.2907 30.6837C36.4032 30.9401 36.4588 31.2117 36.4588 31.4988C36.4588 31.9099 36.348 32.2699 36.1231 32.5821C35.9373 32.8488 35.6856 33.0382 35.3726 33.1507C35.0591 33.2599 34.611 33.315 34.0271 33.315H31.6679ZM25.3948 30.6131C24.766 30.6131 24.2448 30.7861 23.8282 31.1322C23.3317 31.5431 23.0812 32.0808 23.0812 32.7426C23.0812 33.4047 23.3317 33.9394 23.8282 34.3444C24.2448 34.6908 24.7698 34.8644 25.4023 34.8644C26.0308 34.8644 26.553 34.6908 26.9696 34.3444C27.2178 34.1411 27.4074 33.8908 27.538 33.5925C27.6556 33.3246 27.7157 33.0513 27.7157 32.7701C27.7157 32.077 27.466 31.5328 26.9696 31.1322C26.5465 30.7912 26.0212 30.6187 25.3948 30.6131ZM25.3852 29.5835C26.4782 29.5835 27.3419 29.8706 27.9765 30.4437C28.6462 31.0453 28.9819 31.8246 28.9819 32.7797C28.9819 33.3642 28.8218 33.9094 28.4987 34.4161C27.87 35.4079 26.8366 35.9027 25.3948 35.9027C24.313 35.9027 23.4559 35.6149 22.8212 35.0426C22.4856 34.7327 22.227 34.3629 22.0478 33.9337C21.8914 33.5573 21.8159 33.1603 21.8159 32.7426C21.8159 32.1286 21.9758 31.5675 22.299 31.0608C22.9021 30.0937 23.9318 29.6018 25.3852 29.5835ZM19.1378 33.1265H15.3172V35.794H14.0781V29.6904H15.3172V32.1248H19.1378V29.6904H20.3793V35.794H19.1378V33.1265ZM12.5026 30.4966L11.954 31.4634C11.351 30.9384 10.5829 30.6541 9.65232 30.6131C9.31666 30.6131 9.01769 30.6513 8.75613 30.7286C8.55791 30.7882 8.39709 30.8789 8.27577 30.9982C8.15539 31.1175 8.09439 31.2485 8.09439 31.3922C8.09439 31.6174 8.25661 31.7737 8.57988 31.8569C8.72761 31.8989 9.05205 31.9437 9.54947 31.9903L10.2846 32.0622C10.7128 32.1094 11.0602 32.1736 11.3246 32.25C11.5882 32.328 11.8203 32.4349 12.0195 32.5718C12.2242 32.7222 12.3837 32.9158 12.4998 33.1544C12.6137 33.393 12.6709 33.6464 12.6709 33.9152C12.6709 34.3444 12.5349 34.7259 12.2609 35.0604C12.0062 35.3646 11.6118 35.5922 11.0777 35.7422C10.6738 35.849 10.2421 35.9027 9.78298 35.9027C8.9485 35.9027 7.97027 35.6149 6.8457 35.0426L7.26364 34.0036C7.50744 34.2009 7.89593 34.3931 8.43005 34.5818C8.96463 34.7695 9.42511 34.8644 9.8094 34.8644C10.239 34.8644 10.6018 34.7981 10.9008 34.6664C11.0742 34.589 11.2145 34.4897 11.3194 34.3673C11.426 34.2452 11.4781 34.1154 11.4781 33.9785C11.4781 33.7746 11.3482 33.6309 11.0866 33.5491C10.9251 33.4889 10.5983 33.4329 10.1084 33.3776L9.39005 33.3054C8.9118 33.2583 8.57614 33.2142 8.38447 33.1727C8.19139 33.1301 7.99761 33.0609 7.80501 32.9667C7.53105 32.8298 7.31811 32.6264 7.16243 32.3569C7.02569 32.119 6.95673 31.8405 6.95673 31.5248C6.95673 31.0129 7.13368 30.5857 7.48851 30.2463C7.95484 29.805 8.66216 29.5835 9.61398 29.5835C10.0179 29.5835 10.4492 29.6402 10.9104 29.7529C11.3701 29.8678 11.9019 30.1144 12.5026 30.4966Z" fill="white"></path><path d="M40.3722 11.7702V11.7688C40.3715 11.2665 40.1672 10.8106 39.8367 10.4813C39.5069 10.1506 39.0502 9.9444 38.5492 9.9444H38.5469H38.5462C38.0432 9.9444 37.5878 10.1499 37.258 10.4792C36.9282 10.8097 36.7218 11.2665 36.7218 11.7678V11.7702C36.7218 15.4928 36.7094 19.1802 36.7094 22.8985V22.9006C36.7094 23.5133 36.4574 24.0716 36.0535 24.4759C35.6472 24.8825 35.0884 25.1345 34.475 25.1345H34.4736H34.4722C33.8588 25.1345 33.3006 24.8832 32.8967 24.4789C32.4905 24.0723 32.238 23.5133 32.238 22.8992V22.8985V14.7917V14.791C32.238 14.5119 32.1249 14.2585 31.9412 14.0767H31.9398C31.756 13.8934 31.5036 13.7792 31.2273 13.7792H31.2252H31.2243C30.9468 13.7792 30.6934 13.8934 30.5097 14.0774L30.5083 14.076C30.326 14.2592 30.2131 14.5126 30.2124 14.7896V14.7917V19.6553V19.6574C30.2114 20.2717 29.9604 20.8306 29.5565 21.2349L29.5548 21.2333C29.1495 21.6383 28.5906 21.891 27.9773 21.891H27.9766H27.9749C27.3618 21.8903 26.8036 21.6392 26.4004 21.2356H26.3974C25.9927 20.8306 25.7408 20.2717 25.7408 19.656V19.6553V17.2185V17.2168C25.7408 17.1615 25.7181 17.1116 25.6814 17.0748C25.6468 17.0401 25.597 17.0181 25.5418 17.0181H25.5402H25.5388C25.4836 17.0181 25.4329 17.0408 25.3965 17.0769C25.3619 17.1123 25.3397 17.1615 25.3397 17.2168V17.2185V18.0306H24.1162V17.2185V17.2168C24.1169 16.8273 24.2777 16.4708 24.5363 16.2116C24.7941 15.9554 25.1482 15.7956 25.5388 15.7949H25.5402H25.5418C25.9317 15.7949 26.288 15.9568 26.5465 16.2153C26.8029 16.4722 26.963 16.8266 26.9637 17.2168V17.2185V19.6553V19.656C26.9637 19.9337 27.0783 20.1871 27.262 20.3703L27.2604 20.3717C27.4441 20.5543 27.6965 20.6678 27.9749 20.6678H27.9766H27.9773C28.2564 20.6678 28.5097 20.555 28.6918 20.3724V20.3703C28.8756 20.1861 28.9887 19.9337 28.9894 19.6574V19.6553V14.7917V14.7896C28.9901 14.177 29.2411 13.6194 29.646 13.2144V13.2121C30.0492 12.8071 30.6088 12.5553 31.2243 12.5553H31.2252H31.2273C31.8414 12.556 32.4002 12.8071 32.8042 13.2113L32.8028 13.2128C33.2088 13.6187 33.4608 14.1774 33.4608 14.791V14.7917V22.8985V22.8992C33.4608 23.1784 33.5746 23.4317 33.7569 23.6136C33.9404 23.7976 34.1938 23.911 34.4722 23.911H34.4736H34.475C34.7534 23.911 35.0061 23.7983 35.1882 23.616C35.3719 23.4324 35.4864 23.1791 35.4864 22.9006V22.8985C35.4864 19.1802 35.4991 15.4928 35.4991 11.7702V11.7678C35.4991 10.9321 35.842 10.1713 36.3936 9.61908C36.9467 9.06596 37.7089 8.72119 38.5462 8.72119H38.5469H38.5492C39.3849 8.72213 40.1453 9.06455 40.6969 9.61604C41.2507 10.1699 41.595 10.9321 41.595 11.7688V11.7702V19.6553V19.6574C41.595 19.9358 41.7088 20.1892 41.8925 20.3724C42.0746 20.555 42.328 20.6678 42.6064 20.6678H42.6078H42.6101C42.8878 20.6678 43.1412 20.5536 43.3247 20.3703C43.5077 20.1882 43.6206 19.9351 43.6206 19.656V19.6553V16.4171V16.4164C43.6206 15.8028 43.8735 15.2438 44.2779 14.8381L44.2768 14.8367C44.6814 14.4324 45.2396 14.1812 45.8543 14.1805H45.8557H45.8571C46.4726 14.1805 47.0308 14.4324 47.4363 14.8374V14.8396C47.8396 15.2448 48.0913 15.8021 48.0922 16.4155V16.4171V19.6553V19.6574C48.0922 19.9337 48.2061 20.1861 48.3896 20.3703V20.3724C48.5719 20.555 48.8253 20.6678 49.1037 20.6678H49.1051H49.1072C49.3842 20.6678 49.6368 20.5543 49.8203 20.3717L49.8189 20.3703C50.0027 20.1871 50.117 19.9337 50.117 19.656V19.6553V18.0364H51.3406V19.6553V19.656C51.3406 20.2717 51.0889 20.8314 50.6833 21.2356H50.6812C50.2766 21.6392 49.7198 21.8903 49.1072 21.891H49.1051H49.1037C48.491 21.891 47.9321 21.6383 47.5259 21.2333L47.5245 21.2349C47.1205 20.8306 46.87 20.2717 46.8693 19.6574V19.6553V16.4171V16.4155C46.8686 16.1373 46.7547 15.8846 46.5717 15.7011L46.5712 15.7021C46.3875 15.5188 46.1348 15.4044 45.8571 15.4044H45.8557H45.8543C45.578 15.4044 45.3254 15.5188 45.1412 15.7021H45.1398C44.9567 15.8839 44.8436 16.1373 44.8436 16.4164V16.4171V19.6553V19.656C44.8436 20.2703 44.5902 20.829 44.184 21.2356C43.7801 21.6392 43.2226 21.8903 42.6101 21.891H42.6078H42.6064C41.9923 21.891 41.4335 21.6383 41.0281 21.2328C40.6242 20.8283 40.3722 20.2703 40.3722 19.6574V19.6553V11.7702Z" fill="white"></path></svg>